<svg xmlns="http://www.w3.org/2000/svg" viewBox="0 0 900 600" font-family="Montserrat, Arial, sans-serif">
  <defs>
    <filter id="shadow">
      <feDropShadow dx="2" dy="2" stdDeviation="3" flood-opacity="0.15"/>
    </filter>
    <clipPath id="bucketClip">
      <path d="M80,100 L80,430 Q80,460 110,460 L370,460 Q400,460 400,430 L400,100 Z"/>
    </clipPath>
    <linearGradient id="overflowGrad" x1="0%" y1="0%" x2="0%" y2="100%">
      <stop offset="0%" stop-color="#C8102E" stop-opacity="0.4"/>
      <stop offset="100%" stop-color="#C8102E" stop-opacity="0.05"/>
    </linearGradient>
  </defs>

  <!-- Title -->
  <text x="450" y="38" text-anchor="middle" font-size="20" font-weight="700" fill="#333333">Context Window Visualization</text>
  <text x="450" y="58" text-anchor="middle" font-size="12" fill="#888888">How AI models allocate their memory budget</text>

  <!-- Main bucket outline -->
  <g filter="url(#shadow)">
    <!-- Bucket shape -->
    <path d="M80,95 L80,430 Q80,465 115,465 L365,465 Q400,465 400,430 L400,95" fill="#FFFFFF" stroke="#333333" stroke-width="2.5" stroke-linecap="round"/>
    <!-- Bucket rim -->
    <rect x="65" y="88" width="350" height="14" rx="7" fill="#555555"/>
  </g>

  <!-- Layer 4 (bottom): AI Response Space — 20% -->
  <rect x="82" y="385" width="316" height="78" fill="#F5F5F5" stroke="#DDDDDD" stroke-width="0.5"/>
  <text x="240" y="418" text-anchor="middle" font-size="14" font-weight="600" fill="#888888">AI Response Space</text>
  <text x="240" y="438" text-anchor="middle" font-size="11" fill="#AAAAAA">~20% reserved for output</text>

  <!-- Layer 3: Conversation History — 30% -->
  <rect x="82" y="270" width="316" height="115" fill="#E0E0E0" stroke="#CCCCCC" stroke-width="0.5"/>
  <text x="240" y="320" text-anchor="middle" font-size="14" font-weight="600" fill="#555555">Conversation History</text>
  <text x="240" y="340" text-anchor="middle" font-size="11" fill="#777777">~30% of context window</text>
  <!-- Chat icons -->
  <rect x="170" y="350" width="60" height="14" rx="7" fill="#CCCCCC"/>
  <rect x="250" y="350" width="45" height="14" rx="7" fill="#BBBBBB"/>

  <!-- Layer 2: Uploaded Documents — 40% -->
  <rect x="82" y="118" width="316" height="152" fill="#00968F" opacity="0.85"/>
  <text x="240" y="185" text-anchor="middle" font-size="14" font-weight="700" fill="#FFFFFF">Uploaded Documents</text>
  <text x="240" y="205" text-anchor="middle" font-size="11" fill="rgba(255,255,255,0.8)">~40% of context window</text>
  <!-- Document icons -->
  <g opacity="0.4">
    <rect x="155" y="218" width="30" height="36" rx="3" fill="#FFFFFF"/>
    <rect x="195" y="218" width="30" height="36" rx="3" fill="#FFFFFF"/>
    <rect x="235" y="218" width="30" height="36" rx="3" fill="#FFFFFF"/>
    <rect x="275" y="218" width="30" height="36" rx="3" fill="#FFFFFF"/>
  </g>

  <!-- Layer 1 (top): System Prompt — 10% -->
  <rect x="82" y="102" width="316" height="16" fill="#1D428A"/>

  <!-- System prompt label (outside, to the left) -->
  <line x1="60" y1="110" x2="80" y2="110" stroke="#1D428A" stroke-width="1.5"/>
  <text x="55" y="114" text-anchor="end" font-size="11" font-weight="600" fill="#1D428A">System Prompt (~10%)</text>

  <!-- Overflow zone -->
  <rect x="65" y="48" width="350" height="42" rx="4" fill="url(#overflowGrad)" stroke="#C8102E" stroke-width="1.5" stroke-dasharray="6,3"/>
  <text x="240" y="72" text-anchor="middle" font-size="11" font-weight="700" fill="#C8102E">OVERFLOW: Content exceeds context = lost!</text>

  <!-- Percentage labels on right side of bucket -->
  <g font-size="11" fill="#666666">
    <text x="410" y="114" font-weight="600" fill="#1D428A">10%</text>
    <text x="410" y="195" font-weight="600" fill="#00968F">40%</text>
    <text x="410" y="328" font-weight="600" fill="#555555">30%</text>
    <text x="410" y="425" font-weight="600" fill="#888888">20%</text>
  </g>

  <!-- Right side: Size comparison -->
  <text x="670" y="100" text-anchor="middle" font-size="14" font-weight="700" fill="#333333">Context Window Sizes</text>

  <!-- Small bucket: 128K -->
  <g filter="url(#shadow)" transform="translate(560, 130)">
    <path d="M0,0 L0,130 Q0,145 15,145 L75,145 Q90,145 90,130 L90,0" fill="#F5F5F5" stroke="#1D428A" stroke-width="2"/>
    <rect x="-8" y="-5" width="106" height="10" rx="5" fill="#1D428A"/>
    <!-- Fill levels -->
    <rect x="2" y="90" width="86" height="53" fill="#1D428A" opacity="0.15"/>
    <rect x="2" y="40" width="86" height="50" fill="#00968F" opacity="0.15"/>
    <rect x="2" y="10" width="86" height="30" fill="#E0E0E0" opacity="0.5"/>
    <text x="45" y="170" text-anchor="middle" font-size="13" font-weight="700" fill="#1D428A">128K</text>
    <text x="45" y="186" text-anchor="middle" font-size="10" fill="#888888">tokens</text>
    <text x="45" y="202" text-anchor="middle" font-size="10" fill="#888888">~96K words</text>
  </g>

  <!-- Large bucket: 2M -->
  <g filter="url(#shadow)" transform="translate(690, 130)">
    <path d="M0,0 L0,240 Q0,260 20,260 L130,260 Q150,260 150,240 L150,0" fill="#F5F5F5" stroke="#C8102E" stroke-width="2"/>
    <rect x="-8" y="-5" width="166" height="10" rx="5" fill="#C8102E"/>
    <!-- Fill levels -->
    <rect x="2" y="160" width="146" height="98" fill="#C8102E" opacity="0.1"/>
    <rect x="2" y="60" width="146" height="100" fill="#00968F" opacity="0.1"/>
    <rect x="2" y="10" width="146" height="50" fill="#E0E0E0" opacity="0.3"/>
    <text x="75" y="285" text-anchor="middle" font-size="13" font-weight="700" fill="#C8102E">2M</text>
    <text x="75" y="301" text-anchor="middle" font-size="10" fill="#888888">tokens</text>
    <text x="75" y="317" text-anchor="middle" font-size="10" fill="#888888">~1.5M words</text>
  </g>

  <!-- Scale comparison line -->
  <text x="560" y="365" font-size="11" fill="#888888">|</text>
  <line x1="575" y1="358" x2="840" y2="358" stroke="#CCCCCC" stroke-width="1" stroke-dasharray="4,3"/>
  <text x="708" y="380" text-anchor="middle" font-size="11" fill="#666666">15x larger context window</text>

  <!-- Legend -->
  <g transform="translate(80, 500)">
    <text x="0" y="0" font-size="13" font-weight="700" fill="#333333">What fills the context window:</text>
    <rect x="0" y="15" width="16" height="16" rx="3" fill="#1D428A"/>
    <text x="24" y="28" font-size="11" fill="#555555">System prompt (instructions to the AI)</text>
    <rect x="250" y="15" width="16" height="16" rx="3" fill="#00968F"/>
    <text x="274" y="28" font-size="11" fill="#555555">Documents you upload or paste</text>
    <rect x="0" y="40" width="16" height="16" rx="3" fill="#E0E0E0" stroke="#CCC" stroke-width="0.5"/>
    <text x="24" y="53" font-size="11" fill="#555555">Your conversation back-and-forth</text>
    <rect x="250" y="40" width="16" height="16" rx="3" fill="#F5F5F5" stroke="#DDD" stroke-width="0.5"/>
    <text x="274" y="53" font-size="11" fill="#555555">Space reserved for AI response</text>
  </g>
</svg>